<svg xmlns="http://www.w3.org/2000/svg" width="200" height="163" viewBox="0 0 200 163">
  <g fill-rule="evenodd">
    <path d="M175,-8.52651283e-14 C188.807119,-8.78014549e-14 200,11.1928813 200,25 L200,137.5 C200,151.307119 188.807119,162.5 175,162.5 L25,162.5 C11.1928813,162.5 -5.38321595e-13,151.307119 -5.40012479e-13,137.5 L-5.40012479e-13,25 C-5.41703364e-13,11.1928813 11.1928813,-8.27288017e-14 25,-8.52651283e-14 L175,-8.52651283e-14 Z M81.25,13 L26.75,13 C19.2601109,13 13.1689297,18.98858 13.0034535,26.4387429 L13,26.75 L13,135.75 C13,143.239889 18.98858,149.33107 26.4387429,149.496547 L26.75,149.5 L81.25,149.5 L81.25,13 Z M173.25,13 L94.25,13 L94.25,149.5 L173.25,149.5 C180.739889,149.5 186.83107,143.51142 186.996547,136.061257 L187,135.75 L187,26.75 C187,19.1560847 180.843915,13 173.25,13 Z"/>
    <rect width="43.125" height="13" x="26.875" y="28.75" fill-rule="nonzero" rx="5"/>
    <rect width="43.125" height="13" x="26.875" y="55" fill-rule="nonzero" rx="5"/>
    <rect width="43.125" height="13" x="26.875" y="81.25" fill-rule="nonzero" rx="5"/>
  </g>
</svg>
